<svg id="Capa_1" enable-background="new 0 0 619.535 619.535" height="512" viewBox="0 0 619.535 619.535" width="512" xmlns="http://www.w3.org/2000/svg"><g><g><path d="m186.847 580.446c-54.339-38.538-89.801-101.944-89.801-173.633 0-117.483 95.239-212.722 212.722-212.722s212.722 95.239 212.722 212.722c0 71.688-35.462 135.095-89.801 173.633z" fill="#ffbf59"/><path d="m214.196 406.813-27.347 173.631c34.711 24.618 77.124 39.091 122.918 39.091 45.795 0 88.208-14.473 122.92-39.091l-27.347-173.631z" fill="#587082"/><path d="m327.811 473.615h-36.087l-22.888-78.029h81.863z" fill="#fff"/><ellipse cx="476.749" cy="111.375" fill="#587082" rx="110.891" ry="111.375"/><ellipse cx="476.749" cy="111.375" fill="#ffb8d3" rx="71.41" ry="71.721"/><path d="m476.749 39.654c-8.77 0-17.168 1.596-24.931 4.501 27.142 10.159 46.478 36.418 46.478 67.22s-19.336 57.06-46.478 67.22c7.762 2.905 16.16 4.501 24.931 4.501 39.438 0 71.41-32.111 71.41-71.721s-31.971-71.721-71.41-71.721z" fill="#ffa6c8"/><ellipse cx="142.786" cy="111.375" fill="#587082" rx="110.891" ry="111.375"/><ellipse cx="142.786" cy="111.375" fill="#ffb8d3" rx="71.41" ry="71.721"/><path d="m449.28 138.271c-.01-.008-.018-.017-.028-.025-98.863-27.704-180.108-27.704-278.971 0-.01.008-.019.017-.028.027-24.29 87.845-24.29 180.692 0 268.536.01.008.019.018.029.027 98.862 27.702 180.107 27.702 278.969 0 .01-.01.019-.018.029-.027 24.29-87.845 24.29-180.693 0-268.538z" fill="#889fb0"/><path d="m449.275 138.252c-58.553-16.41-110.927-23.098-164.439-20.073 36.855 2.084 74.25 8.771 114.578 20.073 24.297 87.857 24.297 180.72 0 268.577-40.327 11.302-77.723 17.99-114.578 20.073 53.512 3.025 105.886-3.664 164.439-20.073 24.298-87.858 24.298-180.72 0-268.577z" fill="#7b93a6"/><g fill="#587082"><path d="m319.116 427.598v-47.097c0-5.163-4.186-9.349-9.349-9.349s-9.349 4.186-9.349 9.349v47.097z"/><path d="m250.186 280.712c12.031 0 12.052-18.699 0-18.699-12.032.001-12.052 18.699 0 18.699z"/><path d="m369.349 280.712c12.031 0 12.052-18.699 0-18.699-12.031.001-12.05 18.699 0 18.699z"/></g><path d="m314.897 378.648 29.159-24.244c11.85-9.852-6.362-28.497-34.277-28.497-28.644 0-46.13 18.653-34.291 28.497l29.159 24.244c2.97 2.47 7.279 2.47 10.25 0z" fill="#ffb8d3"/><path d="m425.357 376.193c-1.344 0-2.71-.292-4.005-.906l-44.045-20.925c-7.05-3.349-6.959-13.728.145-16.957l44.045-20.009c10.653-4.835 18.87 11.965 7.733 17.024l-25.726 11.688 25.87 12.29c8.609 4.089 5.588 17.794-4.017 17.795z" fill="#fff"/><path d="m194.177 376.193c-9.661 0-12.662-13.871-3.872-17.864l25.726-11.688-25.87-12.29c-10.568-5.019-3.024-22.141 8.024-16.89l44.045 20.925c7.05 3.349 6.959 13.729-.145 16.957l-44.045 20.009c-1.255.571-2.569.841-3.863.841z" fill="#fff"/></g></g></svg>